<svg width="24" height="24" viewBox="0 0 24 24" fill="none" xmlns="http://www.w3.org/2000/svg">
<path d="M19.2 9.6C19.2 5.55418 17.4103 2.47621 14.2328 1.51501C13.8861 0.633845 13.034 0 12 0C10.9716 0 10.1231 0.62695 9.77281 1.50062C6.52557 2.44515 4.79996 5.53375 4.79996 9.6C4.79996 11.3895 4.79996 18 1.19995 18L1.19996 19.2H22.8V18C19.2 18 19.2 11.4 19.2 9.6Z" fill="#282B2F"/>
<path d="M14.4 21.6C14.4 22.9255 13.3254 24 11.9999 24C10.6745 24 9.59995 22.9255 9.59995 21.6H14.4Z" fill="#282B2F"/>
<circle cx="19" cy="4" r="4" fill="#48A1F3"/>
</svg>
