<svg width="27" height="31" viewBox="0 0 27 31" fill="none" xmlns="http://www.w3.org/2000/svg">
  <path
    fill-rule="evenodd"
    clip-rule="evenodd"
    d="M20.9548 11.9774C20.9548 16.9355 16.9355 20.9548 11.9774 20.9548C7.01932 20.9548 3 16.9355 3 11.9774C3 7.01932 7.01932 3 11.9774 3C16.9355 3 20.9548 7.01932 20.9548 11.9774ZM17.087 22.8134C15.5372 23.5454 13.8051 23.9548 11.9774 23.9548C5.36247 23.9548 0 18.5923 0 11.9774C0 5.36247 5.36247 0 11.9774 0C18.5923 0 23.9548 5.36247 23.9548 11.9774C23.9548 14.8008 22.9779 17.396 21.3436 19.4435C21.6168 19.6259 21.8628 19.8589 22.0671 20.1403L26.3247 26.0056C27.25 27.2802 26.9668 29.0635 25.6922 29.9887C24.4176 30.9139 22.6343 30.6307 21.7091 29.3561L17.4514 23.4908C17.2963 23.2772 17.1752 23.0492 17.087 22.8134Z"
    fill="#3B3E4A"
  />
</svg>