<svg width="28" height="28" viewBox="0 0 28 28" fill="none" xmlns="http://www.w3.org/2000/svg">
<path d="M21.2 10.6C21.2 6.55418 19.4103 3.47621 16.2328 2.51501C15.8861 1.63385 15.034 1 14 1C12.9716 1 12.1231 1.62695 11.7728 2.50062C8.52557 3.44515 6.79996 6.53375 6.79996 10.6C6.79996 12.3895 6.79996 19 3.19995 19L3.19996 20.2H24.8V19C21.2 19 21.2 12.4 21.2 10.6Z" fill="#282B2F"/>
<path d="M16.4 22.6C16.4 23.9255 15.3254 25 13.9999 25C12.6745 25 11.6 23.9255 11.6 22.6H16.4Z" fill="#282B2F"/>
<rect x="24.0415" width="2.91107" height="34" transform="rotate(45 24.0415 0)" fill="#282B2F"/>
<rect x="26.1028" y="2.06119" width="2.49926" height="34" transform="rotate(45 26.1028 2.06119)" fill="white"/>
</svg>
