<svg width="20" height="24" viewBox="0 0 20 24" fill="none" xmlns="http://www.w3.org/2000/svg">
<path fill-rule="evenodd" clip-rule="evenodd" d="M18.25 15.75V11.6875C18.25 7.46625 16.0087 3.9325 12.0625 2.9975V2.0625C12.0625 0.92125 11.1413 0 10 0C8.85875 0 7.9375 0.92125 7.9375 2.0625V2.9975C4.005 3.9325 1.75 7.4525 1.75 11.6875V15.75L0.166485 18.2384C0.0577534 18.4092 0 18.6076 0 18.8101V18.8101C0 19.3982 0.476772 19.875 1.0649 19.875H18.9351C19.5232 19.875 20 19.3982 20 18.8101V18.8101C20 18.6076 19.9422 18.4092 19.8335 18.2384L18.25 15.75ZM10 24C11.5125 24 12.75 22.7625 12.75 21.25H7.25C7.25 22.7625 8.4875 24 10 24ZM3.83653 17.9H16.1565V11.6875C16.1565 8.2775 13.5 4.8 10 4.8C6.5 4.8 3.83653 8.2775 3.83653 11.6875V17.9Z" fill="#3B3E4A"/>
</svg>
