<svg width="23" height="22" viewBox="0 0 23 22" fill="none" xmlns="http://www.w3.org/2000/svg">
<path fill-rule="evenodd" clip-rule="evenodd" d="M0 11C0 4.92484 5.1487 0 11.5 0C17.8513 0 23 4.92484 23 11C23 17.0751 17.8513 22 11.5 22C5.1487 22 0 17.0751 0 11ZM11.5 2.16393C6.39813 2.16393 2.26229 6.11995 2.26229 11C2.26229 15.88 6.39813 19.8361 11.5 19.8361C16.6019 19.8361 20.7377 15.88 20.7377 11C20.7377 6.11995 16.6018 2.16393 11.5 2.16393ZM11.3641 4.15847C11.9888 4.15854 12.4952 4.643 12.4951 5.24056L12.4945 10.7479L16.5589 14.6356C17.0007 15.0582 17.0007 15.7432 16.5589 16.1658C16.1172 16.5883 15.401 16.5883 14.9592 16.1658L10.5634 11.9611C10.3513 11.7581 10.2321 11.4829 10.2321 11.1959L10.2328 5.24032C10.2329 4.64277 10.7394 4.15841 11.3641 4.15847Z" fill="#3B3E4A"/>
</svg>
