<svg width="16" height="20" viewBox="0 0 16 20" fill="none" xmlns="http://www.w3.org/2000/svg">
<g clip-path="url(#clip0_181_1232)">
<path d="M13.3634 10.4359C13.3399 7.94992 15.3939 6.75637 15.4821 6.70105C14.3286 5.01194 12.53 4.77653 11.8921 4.74828C10.3619 4.59408 8.90347 5.6511 8.12542 5.6511C7.34737 5.6511 6.15029 4.77417 4.88257 4.79889C3.21113 4.82243 1.67622 5.76998 0.816951 7.26016C-0.915706 10.2664 0.372015 14.7228 2.06347 17.1605C2.88743 18.3541 3.87029 19.6948 5.16154 19.6465C6.40806 19.5983 6.87772 18.8426 8.3832 18.8426C9.88868 18.8426 10.3101 19.6465 11.6272 19.6265C12.9656 19.5983 13.8142 18.4047 14.6311 17.2112C15.2167 16.349 15.6754 15.4071 15.993 14.4144C15.9706 14.4038 13.3881 13.4127 13.3634 10.4359Z" fill="white"/>
<path d="M10.8868 3.13573C11.5754 2.30589 12.038 1.15 11.9097 0C10.9221 0.0376664 9.72501 0.659163 9.01876 1.48665C8.38079 2.22467 7.82167 3.40293 7.97352 4.52821C9.07408 4.61178 10.2029 3.96675 10.8868 3.13573Z" fill="white"/>
</g>
<defs>
<clipPath id="clip0_181_1232">
<rect width="16" height="19.6478" fill="white"/>
</clipPath>
</defs>
</svg>
