<svg width="18" height="18" viewBox="0 0 18 18" fill="none" xmlns="http://www.w3.org/2000/svg">
<g clip-path="url(#clip0_181_1159)">
<path fill-rule="evenodd" clip-rule="evenodd" d="M17.64 9.19999C17.6383 8.58325 17.5848 7.96775 17.48 7.35999H9V10.85H13.84C13.7408 11.3994 13.531 11.923 13.2233 12.3888C12.9156 12.8547 12.5164 13.2531 12.05 13.56V15.82H15C15.8856 14.9659 16.5818 13.9352 17.0435 12.7948C17.5052 11.6544 17.7221 10.4296 17.68 9.19999H17.64Z" fill="#4285F4"/>
<path fill-rule="evenodd" clip-rule="evenodd" d="M9 18.0001C11.2053 18.0681 13.3527 17.2878 15 15.8201L12.09 13.5601C11.1815 14.1436 10.1196 14.4431 9.04 14.4201C7.92443 14.3978 6.84352 14.0285 5.94746 13.3637C5.0514 12.6988 4.3847 11.7713 4.04 10.7101H1V13.0001C1.74022 14.4921 2.87996 15.7495 4.29237 16.6323C5.70479 17.515 7.33446 17.9885 9 18.0001Z" fill="#34A853"/>
<path fill-rule="evenodd" clip-rule="evenodd" d="M4 10.71C3.62655 9.60058 3.62655 8.39942 4 7.29V5H0.999998C0.383198 6.2432 0.0622559 7.6122 0.0622559 9C0.0622559 10.3878 0.383198 11.7568 0.999998 13L4 10.67V10.71Z" fill="#FBBC05"/>
<path fill-rule="evenodd" clip-rule="evenodd" d="M9 3.58003C10.2803 3.55624 11.5176 4.04182 12.44 4.93003L15 2.34003C13.3757 0.816828 11.2266 -0.0213228 9 3.20532e-05C7.33446 0.0115736 5.70479 0.485073 4.29237 1.36783C2.87996 2.25059 1.74022 3.50797 1 5.00003L4 7.33003C4.3447 6.26882 5.0114 5.34133 5.90746 4.67646C6.80352 4.01158 7.88443 3.64233 9 3.62003V3.58003Z" fill="#EA4335"/>
</g>
<defs>
<clipPath id="clip0_181_1159">
<rect width="18" height="18" fill="white"/>
</clipPath>
</defs>
</svg>
